<?xml version="1.0" encoding="utf-8"?>
<!-- Generator: Adobe Illustrator 27.0.0, SVG Export Plug-In . SVG Version: 6.00 Build 0)  -->
<svg version="1.1" id="Layer_1" xmlns="http://www.w3.org/2000/svg" xmlns:xlink="http://www.w3.org/1999/xlink" x="0px" y="0px"
	 viewBox="0 0 374 146" style="enable-background:new 0 0 374 146;" xml:space="preserve">
<style type="text/css">
	.st0{fill:#1863C2;}
	.st1{clip-path:url(#SVGID_00000097481405843459112560000000442065034807030158_);}
	.st2{clip-path:url(#SVGID_00000157295166336498776540000007107185073651254155_);}
	.st3{clip-path:url(#SVGID_00000162323714878773144610000012802021882860265353_);}
	.st4{clip-path:url(#SVGID_00000106120645351388179860000013694732227713127085_);}
	.st5{clip-path:url(#SVGID_00000075843477103102439980000015710147927455066011_);}
	.st6{clip-path:url(#SVGID_00000092430540670917524370000001407342887343889084_);}
	.st7{clip-path:url(#SVGID_00000179640568803069964010000017644170355606789533_);}
	.st8{clip-path:url(#SVGID_00000081635454055822418500000006640806787798927510_);}
	.st9{clip-path:url(#SVGID_00000064323796648541049690000015974827061604089222_);}
	.st10{clip-path:url(#SVGID_00000097461525855982059630000003201408509066102454_);}
	.st11{clip-path:url(#SVGID_00000088837980766486155150000005506171995871061676_);}
	.st12{fill:#0B0F8F;}
	.st13{fill:#2E3192;}
</style>
<path class="st0" d="M30.1,115c-1.1-1.1-3-3-3.8-3.5c0,0-0.1,0-0.2,0c0,0.5,5.1,5.4,5.6,5.4C31.7,116.7,30.8,115.8,30.1,115"/>
<path class="st0" d="M36.6,119.8c-1.2-1-3.3-2.6-4.3-3c-0.1,0-0.2-0.1-0.2,0c-0.2,0.2,1.1,1.4,2.5,2.5c1.8,1.3,3.3,2.3,3.6,2.2
	C38.2,121.2,37.2,120.3,36.6,119.8"/>
<path class="st0" d="M14.8,94.3c0,0-0.1-0.1-0.1-0.1c0,0.7,3.4,7.2,3.8,7.2c0-0.3-0.7-1.7-1.1-2.5C16.7,97.5,15.4,95,14.8,94.3"/>
<path class="st0" d="M19,101.2c-0.1,0-0.2-0.1-0.2,0c-0.4,0.4,3.5,6.3,4.5,6.6c0.4,0.1,0-0.9-1-2.4C21.4,104,19.8,101.8,19,101.2"/>
<path class="st0" d="M28.2,111.2c-1-1.3-2.8-3.3-3.9-3.7c-0.1,0-0.2-0.1-0.3,0c-0.8,0.5,3.7,5.7,5.1,5.9
	C29.6,113.5,29.2,112.6,28.2,111.2"/>
<path class="st0" d="M11.9,86.8c0,0.1,0.1,0.3,0.2,0.6C12,87.2,11.9,87,11.9,86.8L11.9,86.8"/>
<path class="st0" d="M16.8,96.7c0.5,0.3,0.4-0.9-0.2-2.8c-0.6-1.6-1.7-4.2-2.6-4.8c-0.1,0-0.1-0.1-0.2,0
	C12.9,89.2,15.5,96,16.8,96.7"/>
<path class="st0" d="M21.7,103.3c0.7,0.2,0.7-0.9-0.1-2.7c-0.7-1.5-2.2-3.9-3.3-4.4c-0.1,0-0.2-0.1-0.3,0
	C16.9,96.9,20,102.7,21.7,103.3"/>
<path class="st0" d="M27.4,109.2c1.1,0.3,1.1-0.8,0.2-2.5c-0.9-1.6-2.7-3.6-4-3.9c-0.1,0-0.3,0-0.4,0
	C22,103.5,25.3,108.5,27.4,109.2"/>
<path class="st0" d="M11,81.5c0,0-0.1-0.1-0.1-0.1c-0.5,0.3,1.5,7.9,2.2,8.1c0.3-0.2-0.2-2.3-0.4-2.9C12.4,85,11.5,82.2,11,81.5"/>
<path class="st0" d="M16.3,91.3c0.9,0.5,1.2-0.9,0.7-3c-0.4-1.7-1.4-4.3-2.6-4.9c-0.1,0-0.2,0-0.3,0C12.7,83.8,14.5,90.3,16.3,91.3"
	/>
<path class="st0" d="M21.1,98.1c1.2,0.6,1.7-0.7,1-2.9c-0.5-1.6-1.9-4.1-3.4-4.5c-0.1,0-0.2,0-0.3,0C16.7,91.2,18.8,97,21.1,98.1"/>
<path class="st0" d="M26.9,104.2c1.6,0.7,2.3-0.5,1.4-2.7c-0.6-1.5-2.3-3.8-4-4.1c-0.2,0-0.4,0-0.6,0.1
	C22.1,98.3,24.4,103.1,26.9,104.2"/>
<path class="st0" d="M12.6,83.9c0.6,0.5,0.9-0.8,0.6-3c-0.2-1.7-0.9-4.4-1.7-5c-0.1,0-0.1-0.1-0.2,0C10.3,76.1,11.3,82.8,12.6,83.9"
	/>
<path class="st0" d="M18.8,82.3c-0.2-1.7-1.1-4.3-2.5-4.8c-0.1,0-0.2,0-0.3,0c-1.8,0.4-1,6.2,1,7.8C18.1,86.3,19.1,84.8,18.8,82.3"
	/>
<path class="st0" d="M23.9,89.3c-0.3-1.7-1.6-4.3-3.3-4.6c-0.1,0-0.3,0-0.4,0c-2,0.5-1,5.9,1.5,7.6C23.3,93.4,24.5,91.9,23.9,89.3"
	/>
<path class="st0" d="M30.1,95.7c-0.5-1.6-2-4-4-4.2c-0.1,0-0.3,0-0.5,0.1c-2.2,0.6-0.8,5.7,2,7.2C29.6,99.7,30.8,98.2,30.1,95.7"/>
<path class="st0" d="M13.4,78.1c0.9,0.7,1.6-0.7,1.5-3c0-1.7-0.5-4.3-1.6-4.8c-0.1,0-0.2,0-0.3,0C11.5,70.5,11.8,76.7,13.4,78.1"/>
<path class="st0" d="M21.7,76c0-1.7-0.8-4.3-2.5-4.6c-0.1,0-0.1,0-0.2,0c-2.2,0.2-2.4,5.4-0.3,7.5C20.2,80.4,21.8,78.9,21.7,76"/>
<path class="st0" d="M26.8,82.8c-0.2-1.7-1.3-4.3-3.2-4.5c-0.1,0-0.2,0-0.2,0c-2.5,0.3-2.3,5.6,0.3,7.6
	C25.4,87.3,27.1,85.6,26.8,82.8"/>
<path class="st0" d="M32.9,89.3c-0.3-1.7-1.7-4.2-3.9-4.3c-0.1,0-0.2,0-0.3,0c-2.5,0.4-2.2,5.3,0.5,7.3
	C31.5,93.9,33.4,92.3,32.9,89.3"/>
<path class="st0" d="M15.3,71.9c1.1,1.3,2.4-0.2,2.6-2.9c0.1-1.7-0.3-4.3-1.6-4.7c-0.1,0-0.1,0-0.2,0C14.3,64.3,13.7,70,15.3,71.9"
	/>
<path class="st0" d="M21.7,72.5c1.5,1.8,3.6,0.2,3.8-2.9c0.1-1.7-0.6-4.2-2.4-4.4C20.4,65.3,19.9,70.4,21.7,72.5"/>
<path class="st0" d="M30.4,76.1c-0.1-1.7-1.1-4.2-3.1-4.3c-3,0.3-3.1,5.4-0.8,7.4C28.3,80.9,30.5,79.2,30.4,76.1"/>
<path class="st0" d="M31.9,85.5c2.3,2,4.8,0.2,4.4-3.1c-0.2-1.7-1.5-4.2-3.8-4.2C29.5,78.6,29.5,83.4,31.9,85.5"/>
<path class="st0" d="M21.8,62.9c0.2-1.7-0.1-4.2-1.6-4.5c-2.4,0-3.3,5.4-1.8,7.3C19.6,67.3,21.3,65.8,21.8,62.9"/>
<path class="st0" d="M41.1,114.6c1.9,0.5,2.6-0.7,1.6-2.5c-0.7-1.3-2.7-3.1-4.7-3.2c-0.3,0-0.6,0-0.8,0.2
	C35.5,110.2,38.1,113.8,41.1,114.6"/>
<path class="st0" d="M44.5,106.7c-0.6-1.4-2.4-3.4-4.7-3.4c-0.2,0-0.5,0.1-0.8,0.2c-2.1,1-0.4,4.8,2.6,6
	C43.9,110.4,45.4,109,44.5,106.7"/>
<path class="st0" d="M47.2,100.7c-0.5-1.5-2.2-3.7-4.7-3.6c-0.1,0-0.2,0-0.3,0c-2.7,0.6-2.2,4.6,0.8,6.4
	C45.7,105.1,48.1,103.5,47.2,100.7"/>
<path class="st0" d="M46.1,90.3c-0.1,0-0.2,0-0.3,0.1c-2.9,0.7-2.8,5.1,0.3,6.9c2.7,1.6,5.4-0.3,4.7-3.2
	C50.4,92.4,48.7,90.1,46.1,90.3"/>
<path class="st0" d="M41.5,118.9c1.3,0.2,1.4-0.8,0.4-2.2c-0.9-1.1-2.9-2.8-4.7-3c-0.2,0-0.5,0-0.7,0.2
	C35.2,114.8,38.9,118.5,41.5,118.9"/>
<path class="st0" d="M42.9,122.4c0.7,0,0.4-0.8-0.7-1.8c-1-0.9-3.1-2.5-4.7-2.8c-0.2,0-0.4,0-0.5,0.1
	C36.2,118.7,41.1,122.4,42.9,122.4"/>
<path class="st0" d="M34.3,104.5c2.4,1.2,4-0.4,3.1-3c-0.6-1.7-2.4-4.1-4.8-4.2c-0.2,0-0.4,0-0.6,0.1
	C29.5,98.2,31.1,102.9,34.3,104.5"/>
<path class="st0" d="M33.8,109.9c1.9,0.6,2.7-0.7,1.6-2.8c-0.7-1.5-2.7-3.8-4.8-4c-0.2,0-0.5,0-0.7,0.1
	C28,104.2,30.7,108.9,33.8,109.9"/>
<path class="st0" d="M12.7,67.8c0.2-1.8,0-4.7-0.8-5.3c-0.1,0-0.1-0.1-0.2,0c-1.3,0.2-1.7,7.4-0.5,8.6
	C11.9,71.6,12.5,70.2,12.7,67.8"/>
<g>
	<defs>
		<rect id="SVGID_1_" x="9" y="67" width="2.3" height="10.7"/>
	</defs>
	<clipPath id="SVGID_00000018939122513788924080000017102119188769248682_">
		<use xlink:href="#SVGID_1_"  style="overflow:visible;"/>
	</clipPath>
	<g style="clip-path:url(#SVGID_00000018939122513788924080000017102119188769248682_);">
		<path class="st0" d="M10.1,68c0,0-0.1-0.1-0.1-0.1c-0.8,0.1-0.4,7.8,0.4,8.7c0.4,0.4,0.6-1,0.6-3.2C10.9,71.6,10.6,68.7,10.1,68"
			/>
	</g>
</g>
<path class="st0" d="M39.8,95.2c-0.4-1.7-2-4-4.4-4c-0.2,0-0.4,0.1-0.6,0.1c-2.5,0.8-1.7,5.2,1.2,6.9C38.5,99.7,40.5,98,39.8,95.2"
	/>
<path class="st0" d="M38.8,91.5c2.5,1.8,5.2,0,4.6-3.2c-0.3-1.7-1.8-4.2-4.3-4.1c-0.1,0-0.2,0-0.3,0.1
	C35.9,84.9,35.9,89.5,38.8,91.5"/>
<path class="st0" d="M34.2,114.3c1.2,0.3,1.3-0.8,0.3-2.4c-0.8-1.3-2.8-3.2-4.4-3.5c-0.2,0-0.4,0-0.6,0.1
	C28.3,109.6,31.9,113.8,34.2,114.3"/>
<path class="st0" d="M35.7,118.2c0.6,0,0.3-0.8-0.8-2c-1-1.1-3.1-2.9-4.4-3.3c-0.2,0-0.3,0-0.4,0.1
	C29.4,113.8,34.1,118.2,35.7,118.2"/>
<g>
	<defs>
		<rect id="SVGID_00000054226287353380428780000001759061572185236897_" x="9" y="60.3" width="1" height="9.3"/>
	</defs>
	<clipPath id="SVGID_00000101104964693979127890000009714808800175079856_">
		<use xlink:href="#SVGID_00000054226287353380428780000001759061572185236897_"  style="overflow:visible;"/>
	</clipPath>
	<g style="clip-path:url(#SVGID_00000101104964693979127890000009714808800175079856_);">
		<path class="st0" d="M9.9,60.6C9.9,60.6,9.9,60.6,9.9,60.6C9.8,60.6,9.8,60.6,9.9,60.6c-0.5,0.7-0.9,7.1-0.6,7.9c0,0,0,0,0.1,0
			c0.2-0.3,0.3-1.9,0.4-2.9C9.9,64.1,10,61.4,9.9,60.6"/>
	</g>
</g>
<path class="st0" d="M11.6,60.3c0.3-1.6,0.6-4.2,0.2-4.8c0,0-0.1-0.1-0.1-0.1c-0.9,0.1-2,7-1.2,7.8C10.7,63.5,11.2,62.3,11.6,60.3"
	/>
<path class="st0" d="M14.5,54.8c0.5-1.6,0.8-4.1,0.2-4.6c0,0-0.1,0-0.1,0c-1.2-0.2-3,6-2.1,7.5C13,58.4,13.9,57.1,14.5,54.8"/>
<path class="st0" d="M15.8,52c0.5,0.9,1.8-0.4,2.7-2.7c0.6-1.6,1.1-4,0.3-4.4C17.2,44.6,14.8,50.4,15.8,52"/>
<path class="st0" d="M15.5,61.8c0.3-1.7,0.3-4.2-0.7-4.7c0,0-0.1,0-0.1,0c-1.5-0.1-2.7,5.9-1.4,7.6C14,65.7,15.1,64.3,15.5,61.8"/>
<path class="st0" d="M16.5,58.7c0.8,1.2,2.3-0.2,3-2.8c0.4-1.6,0.5-4.1-0.7-4.5C16.8,51.3,15.3,57,16.5,58.7"/>
<path class="st0" d="M30.1,62.7c0.2-1.7-0.4-4.1-2.3-4.2c-2.6,0.2-3.7,4.9-2.1,7C27.2,67.5,29.8,65.9,30.1,62.7"/>
<path class="st0" d="M34.9,68.9c0-1.7-0.9-4.2-3.1-4.2c-3,0.4-3.6,5.1-1.6,7.2C32.2,73.9,34.9,72.2,34.9,68.9"/>
<path class="st0" d="M35.9,78.3c2.2,1.9,5,0,4.9-3.3c-0.1-1.7-1.3-4.2-3.7-4.1C33.8,71.5,33.5,76.3,35.9,78.3"/>
<path class="st0" d="M43.3,77c-3.3,0.6-3.5,5.1-1.1,7.2c2.5,2.2,5.7,0.2,5.3-3.2C47.3,79.2,45.9,76.8,43.3,77"/>
<path class="st0" d="M25,52.1c-2.4,0.1-3.8,5.1-2.5,7c1.2,1.7,3.3,0.2,3.9-2.8C26.8,54.7,26.6,52.3,25,52.1"/>
<path class="st0" d="M20.6,52.7c0.8,1.4,2.7,0,3.6-2.7c0.5-1.6,0.7-4-0.6-4.2C21.4,45.7,19.5,50.9,20.6,52.7"/>
<path class="st0" d="M26.9,85.5L26.9,85.5L26.9,85.5L26.9,85.5z"/>
<path class="st0" d="M28.5,92.1L28.5,92.1L28.5,92.1C28.5,92.1,28.5,92.1,28.5,92.1"/>
<path class="st0" d="M48.9,113.6c2.4,0.9,4.1-0.4,3.1-2.4c-0.6-1.2-2.3-2.9-4.6-2.8c-0.2,0-0.5,0.1-0.8,0.2
	C44.8,109.5,46.1,112.5,48.9,113.6"/>
<path class="st0" d="M48.5,118.5c1.8,0.4,2.6-0.7,1.6-2.3c-0.7-1-2.4-2.6-4.5-2.6c-0.1,0-0.6,0-0.9,0.3
	C43.3,114.9,45.8,117.9,48.5,118.5"/>
<path class="st0" d="M39.5,61.9c0.1-1.6-0.7-3.9-2.8-3.8c-2.5,0.3-3.8,4.4-2,6.5C36.4,66.8,39.3,65.1,39.5,61.9"/>
<path class="st0" d="M32.7,52.2c-2.5,0.3-3.7,4.6-2.3,6.5c1.3,1.9,3.9,0.4,4.4-2.5C35,54.5,34.6,52.2,32.7,52.2"/>
<path class="st0" d="M11,55.4c0.3-0.2,0.8-1.7,1.1-2.6c0.1-0.4,1.1-3.6,0.9-4.3c0,0,0-0.1-0.1-0.1c0,0,0,0,0,0
	C12.2,48.8,10.5,55.3,11,55.4"/>
<path class="st0" d="M54.7,105.4c-0.4-1.3-2-3.1-4.4-2.9c-0.2,0-0.4,0.1-0.6,0.1c-2.3,0.8-1.6,4.1,1.1,5.4
	C53.1,109.2,55.6,108,54.7,105.4"/>
<path class="st0" d="M44.8,125c0.3-0.1-0.4-0.7-1.2-1.3c-0.9-0.7-3-2-4.3-2.3c-0.1,0-0.3,0-0.3,0C38.8,122,43.9,125.1,44.8,125"/>
<path class="st0" d="M48.8,122.4c1.3,0.1,1.5-0.7,0.4-1.9c-0.7-0.8-2.5-2.3-4.4-2.3c-0.3,0-0.5,0-0.7,0.2
	C42.9,119.2,46.4,122.2,48.8,122.4"/>
<path class="st0" d="M27.4,52.5c0.9,1.4,3.1,0.3,3.9-2.5c0.3-1,0.6-3.7-1.3-3.8C27.7,46.5,26.2,50.8,27.4,52.5"/>
<path class="st0" d="M15,47.7c0.5-1.2,1.3-3.6,1-4.1c0,0,0,0-0.1,0c-0.7-0.2-3.1,5.6-2.6,6.6C13.5,50.6,14.2,49.6,15,47.7"/>
<path class="st0" d="M41.8,64.1c-3.1,0.6-3.4,4.7-1.7,6.5c1.8,1.9,5.1,0.6,5-2.8C45.1,65.6,43.6,63.9,41.8,64.1"/>
<path class="st0" d="M54.6,86.6c-0.3-1.5-1.6-3.7-4.2-3.4c-3.1,0.5-3.2,4.8-0.8,6.6C51.9,91.4,55.2,89.9,54.6,86.6"/>
<path class="st0" d="M53.5,101.8c2.5,1.6,5.3-0.1,4.7-2.8c-0.5-1.9-2.5-3.3-4.4-3c-0.1,0-0.2,0-0.3,0.1C51,96.7,51,100.2,53.5,101.8
	"/>
<path class="st0" d="M23.3,39.8c-1.6-0.1-3.8,4.7-3.2,6.1c0.4,1,1.9-0.1,2.9-2.3C23.6,42.4,24.2,40.2,23.3,39.8"/>
<path class="st0" d="M50,125.5c0.6-0.1,0.4-0.6-0.5-1.4c-1.3-1.1-3.3-2-4.4-2.1c-0.2,0-0.4,0-0.5,0.1
	C43.8,122.9,48.3,125.6,50,125.5"/>
<path class="st0" d="M28.6,40.4c-1.8,0.1-3.8,4.1-3,5.9c0.7,1.4,2.6,0.1,3.5-2.4C29.6,42.5,29.7,40.5,28.6,40.4"/>
<path class="st0" d="M16.6,44.9c0.2,0.6,1.3-0.5,2.2-2.4c0.6-1.3,1.4-3.4,1-3.7c0,0,0,0,0,0C18.9,38.3,16.2,43.6,16.6,44.9"/>
<path class="st0" d="M48,70c-2.8,0.4-3.6,4.5-1.3,6.5c2.3,1.9,5.3,0.1,5-3C51.6,71.9,50.3,69.8,48,70"/>
<path class="st0" d="M59.5,115.2c-0.6-1.4-2.6-2.5-4.2-2.4c-0.1,0-0.3,0.1-0.5,0.1c-1.8,0.6-1.3,3,1.4,4.2
	C58.6,118.2,60.2,116.9,59.5,115.2"/>
<path class="st0" d="M57.5,119.8c-0.6-0.9-2.4-2.2-4.2-2.1c-0.3,0-0.6,0.1-0.8,0.3c-1.3,0.9,0.7,3.2,3.2,3.7
	C57.7,122.1,58.3,121,57.5,119.8"/>
<path class="st0" d="M41.6,51.6c-2.1,0.3-3.6,3.8-1.9,5.9c1.5,1.9,4.2,0.4,4.5-2.5C44.3,53.5,43.5,51.5,41.6,51.6"/>
<path class="st0" d="M39.6,49.3c0.3-1.9-0.6-3.5-1.9-3.4c-2.2,0.4-3.6,4-2.2,5.8C36.8,53.5,39.2,51.7,39.6,49.3"/>
<path class="st0" d="M16.7,40.9c0.3-0.5,1.6-3,1.6-3.7c0,0,0,0,0,0c-0.4-0.3-3.3,5.1-3,5.8C15.3,43.2,15.8,42.4,16.7,40.9"/>
<path class="st0" d="M32.5,45.9c0.8,1.4,3,0.3,3.7-2.4c0.3-1.2,0.3-3.1-1.1-3.1C33.1,40.7,31.6,44.4,32.5,45.9"/>
<path class="st0" d="M46.7,57.2c-2.4,0.4-3.4,4.2-1.5,6c1.8,1.8,4.7,0,4.6-2.8C49.7,59.1,48.9,57,46.7,57.2"/>
<path class="st0" d="M62.2,109.6c-0.6-1.5-2.4-2.5-4-2.3c-0.2,0-0.4,0.1-0.5,0.1c-2.1,0.7-1.6,3.4,0.8,4.6S63,111.8,62.2,109.6"/>
<path class="st0" d="M56.6,123.7c-1-1-2.8-1.8-4.1-1.8c-0.2,0-0.5,0.1-0.7,0.3c-0.8,0.9,2.2,3,4.3,3.1
	C57.3,125.3,57.5,124.7,56.6,123.7"/>
<path class="st0" d="M28.4,34.7c-1.3-0.1-3.8,3.9-3.3,5.4c0.3,1,1.9,0.2,3.1-2.1C28.7,37,29.4,35,28.4,34.7"/>
<path class="st0" d="M52,127.9c0.3-0.1-0.1-0.5-1.2-1.1c-0.3-0.1-2.6-1.5-4-1.7c-0.2,0-0.3,0-0.3,0.1C46.1,125.7,51,128.1,52,127.9"
	/>
<path class="st0" d="M65.7,103.6c-0.3-1.2-1.6-2.8-4-2.5c0,0,0,0,0,0h0c-0.4,0.1-1.1,0.3-1.6,1c-1.2,1.7,0.4,4.9,3.7,4.5
	c0,0,0,0,0,0C66.2,105.9,65.8,103.8,65.7,103.6"/>
<path class="st0" d="M62.2,92c-0.2-1.4-1.6-3.4-4.2-3.1c-3,0.7-3,4.4-0.6,5.9C59.8,96.5,62.6,94.8,62.2,92"/>
<path class="st0" d="M54.9,75.8c-2.8,0.5-3.4,4.5-0.9,6.3c2.3,1.7,5.3-0.2,4.8-3.2C58.6,77.2,57.2,75.5,54.9,75.8"/>
<path class="st0" d="M13.7,45.6c0.4-1,1.4-3.3,1.5-3.9c0,0,0,0,0,0c0,0,0,0,0,0c-0.4,0.5-2.6,5.8-2.5,6.1
	C12.8,47.7,12.9,47.5,13.7,45.6"/>
<path class="st0" d="M46.1,126.1c-2.6-1.4-3.4-1.7-3.8-1.8c0,0-0.1,0-0.1,0c0,0,0,0,0,0c0.5,0.5,5.2,2.8,5.7,2.8
	C47.9,127.1,47.9,127,46.1,126.1"/>
<path class="st0" d="M21,39.4c0.2,0.7,1.3,0,2.5-2.1c0.1-0.1,1.7-2.9,1-3.4C23.3,33.8,20.7,38.3,21,39.4"/>
<path class="st0" d="M57.1,128c0,0,0.1,0,0.1,0c0.6-0.1,0.4-0.5-0.4-1.1c-1.2-0.8-3-1.5-4-1.5c-0.2,0-0.4,0-0.5,0.1
	C51.7,126,55,128,57.1,128"/>
<path class="st0" d="M33.8,35c-0.2,0-0.5,0.1-1,0.5c-1.8,1.5-2.9,5.1-1.1,5.2c0,0,0,0,0,0c1.4-0.2,2.4-2.3,2.5-2.5
	C34.8,36.6,34.8,35,33.8,35"/>
<path class="st0" d="M22.2,32.8c-0.5-0.1-3.9,4.5-3.4,5.4c0.4,0.2,1.8-1.9,2-2.1C21.2,35.3,22.4,33.2,22.2,32.8
	C22.2,32.8,22.2,32.8,22.2,32.8"/>
<path class="st0" d="M52.8,62.8c-3,0.7-3,4.4-1.3,5.9c1.8,1.6,4.9,0.2,4.7-2.8C56.1,63.9,54.5,62.5,52.8,62.8"/>
<path class="st0" d="M59.7,68.3c-2.5,0.6-3.2,3.8-1.2,5.6c2.2,2,5.1,0,4.9-2.6C63.2,69.8,61.9,68,59.7,68.3"/>
<path class="st0" d="M66.5,84.4c-0.3-1.9-2.2-3.3-3.9-3c-2.5,0.7-3.1,4-1,5.7C64,89.2,66.8,87.1,66.5,84.4"/>
<path class="st0" d="M69.8,96.7c-0.3-1.6-2.2-2.8-3.9-2.5c-2.5,0.7-3,3.6-0.8,5.1C67.5,101,70.2,99.1,69.8,96.7"/>
<path class="st0" d="M26,34.1c0.1,0.9,1.6-0.3,2.6-1.8c0.8-1.1,1.6-2.8,1-3C28.5,29.3,25.8,32.8,26,34.1"/>
<path class="st0" d="M66.6,118.6c-0.5-1.1-2.3-2-3.7-1.8c-0.1,0-0.3,0.1-0.4,0.1c-1.5,0.5-1.3,2.4,0.9,3.3
	C65.6,121.2,67.2,120,66.6,118.6"/>
<path class="st0" d="M49.6,127.5c0,0-0.1,0-0.1,0c0,0,0,0,0,0c0.5,0.5,4.6,1.9,5.5,2c0,0,0,0,0,0c-0.2-0.1-0.7-0.3-1.6-0.7
	C53,128.7,50.5,127.7,49.6,127.5"/>
<path class="st0" d="M30.6,34.5c0.3,1,1.8,0,2.9-1.9c0.6-1,1.2-2.7,0.4-2.8C32.4,29.9,30.2,33.2,30.6,34.5"/>
<path class="st0" d="M59.1,129.9c0.2-0.1-0.7-0.6-1-0.7c-1.2-0.5-2.9-1.1-3.8-1.2c-0.1,0-0.3,0-0.3,0.1
	C53.7,128.6,58.5,130.3,59.1,129.9"/>
<path class="st0" d="M46.5,45.1c-2.1,0.5-3.1,3.6-1.7,5.2c1.4,1.5,3.8,0.1,3.9-2.4C48.9,46.3,47.8,44.9,46.5,45.1"/>
<path class="st0" d="M42.7,39.9c-1.8,0.4-3.1,3.4-2,5c1,1.6,3.3,0.3,3.7-2.1C44.6,41.1,43.8,39.8,42.7,39.9"/>
<path class="st0" d="M62.8,124.4c1.8,0.4,2.5-0.5,1.8-1.5c-0.7-1-2.4-1.7-3.6-1.6c-0.2,0-0.5,0.1-0.7,0.2
	C59.2,122.3,60.6,123.9,62.8,124.4"/>
<path class="st0" d="M23.2,33.2c0.1,0.5,1-0.3,2.2-1.8c0,0,1.9-2.5,1.6-2.9C26.2,28.3,23,32.2,23.2,33.2"/>
<path class="st0" d="M63.2,127.6c1,0,1.2-0.5,0.4-1.2c-0.6-0.6-2-1.4-3.5-1.3c-0.2,0-0.5,0.1-0.7,0.2
	C58.7,126,61.3,127.6,63.2,127.6"/>
<path class="st0" d="M40.2,34.8c-1.6,0.2-3.2,3.4-2.3,4.8c0.7,1.2,2.6,0.2,3.3-2.1C41.4,36.4,41.4,34.8,40.2,34.8"/>
<path class="st0" d="M51.5,50.4c-2.2,0.4-3,3.7-1.4,5.3c1.5,1.4,4.2,0.2,4.1-2.5C54.2,51.9,53.4,50.2,51.5,50.4"/>
<path class="st0" d="M69.4,113.4c-0.3-0.9-1.5-2.1-3.6-1.9c-0.1,0-0.4,0.1-0.6,0.2c-1.7,0.7-1.4,2.8,0.6,3.7
	C67.9,116.4,70,115.2,69.4,113.4"/>
<path class="st0" d="M19.6,34.4c0.8-1.2,1.8-2.7,2-3.1c0,0,0,0,0,0c-0.5,0.2-3.4,4.5-3.2,4.9C18.3,36.1,18.5,36,19.6,34.4"/>
<path class="st0" d="M23.6,30.1c0,0,2-2.4,2-2.8c0,0,0,0,0,0c-0.6,0-3.9,4.1-3.6,4.5C22.2,31.8,23.1,30.7,23.6,30.1"/>
<g>
	<defs>
		<rect id="SVGID_00000152253660888707274180000017369777474509633197_" x="56.7" y="129.7" width="5.3" height="2.6"/>
	</defs>
	<clipPath id="SVGID_00000039850797892792018160000012881566436053979796_">
		<use xlink:href="#SVGID_00000152253660888707274180000017369777474509633197_"  style="overflow:visible;"/>
	</clipPath>
	<g style="clip-path:url(#SVGID_00000039850797892792018160000012881566436053979796_);">
		<path class="st0" d="M57,130c-0.1,0-0.1,0-0.2,0c0.3,0.3,4.6,1.4,5,1.2c-0.1,0-0.1-0.1-1.4-0.4C58.8,130.3,57.6,130,57,130"/>
	</g>
</g>
<path class="st0" d="M67.3,73.8c-2.4,0.5-3,3.7-1,5.3c2.1,1.7,5,0,4.6-2.7C70.6,75.1,69.4,73.4,67.3,73.8"/>
<path class="st0" d="M71.2,110.2C71.2,110.2,71.2,110.2,71.2,110.2C71.2,110.2,71.2,110.2,71.2,110.2c2.2-0.6,1.9-2.3,1.8-2.5
	c-0.2-1-1.3-2.3-3.5-2c-0.8,0.2-1.3,0.6-1.5,0.9C66.8,108.1,68.5,110.6,71.2,110.2C71.2,110.2,71.2,110.2,71.2,110.2"/>
<path class="st0" d="M38.9,29.8c-1.3,0.1-3.1,3-2.6,4.3c0.4,1.1,2,0.3,2.9-1.8C39.6,31.4,39.9,29.8,38.9,29.8"/>
<path class="st0" d="M28.3,28.4c0,0.6,1.1-0.2,2.3-1.6c0.6-0.7,1.9-2.3,1.5-2.5C31.4,24.2,28.4,27.4,28.3,28.4"/>
<path class="st0" d="M64.2,129.8c0.4-0.1,0.1-0.4-0.6-0.9c-0.6-0.3-2.1-1-3.3-1h0c-0.1,0-0.4,0-0.5,0.2
	C59.5,128.8,63.1,130.1,64.2,129.8"/>
<path class="st0" d="M57.5,55.7L57.5,55.7L57.5,55.7L57.5,55.7c-2.7,0.7-2.6,4.1-1,5.3c1.8,1.4,4.3-0.2,4.1-2.7
	C60.5,57.2,59.6,55.4,57.5,55.7"/>
<path class="st0" d="M54.1,129.5l0.2,0.1c-0.1,0-0.3-0.1-0.4-0.1L54.1,129.5"/>
<path class="st0" d="M74.1,89.3c-0.3-1.7-2-2.8-3.6-2.4c-2.7,0.8-2.8,3.9-0.8,5.2C71.8,93.5,74.5,91.8,74.1,89.3"/>
<path class="st0" d="M31.6,29c0.1,0.7,1.4-0.2,2.6-1.7c0.6-0.7,1.5-2.3,1-2.4C34.2,24.8,31.4,27.9,31.6,29"/>
<path class="st0" d="M77.1,101.2c-0.1-1.3-1.6-2.4-3.4-2.1c-2.1,0.6-2.7,2.9-1.1,4.2C74.7,104.8,77.4,103.3,77.1,101.2"/>
<g>
	<defs>
		<rect id="SVGID_00000021114051864358760400000012932517464253457573_" x="60.7" y="129.7" width="5.3" height="2.6"/>
	</defs>
	<clipPath id="SVGID_00000128484563002659370770000003261422995546909336_">
		<use xlink:href="#SVGID_00000021114051864358760400000012932517464253457573_"  style="overflow:visible;"/>
	</clipPath>
	<g style="clip-path:url(#SVGID_00000128484563002659370770000003261422995546909336_);">
		<path class="st0" d="M65.9,131.3c0.2-0.1-0.6-0.4-0.9-0.5c-1-0.3-2.6-0.7-3.3-0.7c-0.1,0-0.3,0-0.3,0.1
			C61.5,130.6,65.4,131.6,65.9,131.3"/>
	</g>
</g>
<path class="st0" d="M64.4,60.9C64.4,60.9,64.4,60.9,64.4,60.9C64.4,60.9,64.4,60.9,64.4,60.9c-2.3,0.7-2.8,3.8-0.8,5.2
	c2.1,1.4,4.4-0.5,4-2.8C67.5,62.1,66.2,60.6,64.4,60.9"/>
<path class="st0" d="M36.2,29c0.2,0.8,1.6-0.1,2.5-1.7c0.4-0.7,1.1-2.2,0.4-2.3C37.9,25.2,35.9,28,36.2,29"/>
<path class="st0" d="M26.6,27.4C26.6,27.4,26.6,27.4,26.6,27.4c0.3,0.1,1.6-1.2,2-1.6c0.1-0.1,1.9-2,1.9-2.3c0,0,0,0,0,0
	C30,23.3,26.3,26.7,26.6,27.4"/>
<path class="st0" d="M73.2,121.4c-0.3-0.7-1.4-1.5-2.9-1.3c-0.2,0-0.4,0.1-0.6,0.2c-1.1,0.6-0.6,2,0.9,2.5
	C72.3,123.4,73.8,122.6,73.2,121.4"/>
<path class="st0" d="M49.8,43.3c1.2,1.3,3.3,0,3.3-2.2c0-1-0.6-2.4-2-2.2C49.4,39.2,48.6,42,49.8,43.3"/>
<path class="st0" d="M69.5,126.5c1.4,0.3,2.3-0.4,1.7-1.2c-0.5-0.7-1.9-1.3-2.9-1.1c-0.2,0-0.5,0.1-0.7,0.3
	C66.8,125,67.9,126.2,69.5,126.5"/>
<path class="st0" d="M47.3,34.1c-1.7,0.4-2.5,3.2-1.5,4.3c0.9,1,2.7,0,2.9-2C48.9,35.2,48.4,34,47.3,34.1"/>
<path class="st0" d="M76.1,116.6c-0.2-0.7-1.2-1.6-2.9-1.4c-0.1,0-0.3,0.1-0.3,0.1c-1.7,0.5-1.5,2.3-0.1,3
	C74.6,119.2,76.7,118.2,76.1,116.6"/>
<path class="st0" d="M44.9,29.4c-1.3,0.2-2.6,2.8-1.9,3.9c0.6,0.9,2.1,0.1,2.7-1.7C45.9,30.7,45.9,29.4,44.9,29.4"/>
<path class="st0" d="M56,43.8c-2.2,0.6-2.3,3.4-1,4.5c1.3,1.1,3.5,0,3.4-2.2C58.3,44.6,57.3,43.6,56,43.8"/>
<path class="st0" d="M69.7,129.2c0.8,0,1-0.4,0.4-0.9c-0.6-0.5-1.8-1-2.8-0.8c-0.2,0-0.4,0.1-0.6,0.2
	C66.1,128.2,68.2,129.3,69.7,129.2"/>
<g>
	<defs>
		<rect id="SVGID_00000072270505144327307230000004592141348113688192_" x="66" y="129.7" width="5.3" height="2.6"/>
	</defs>
	<clipPath id="SVGID_00000067945643677792504630000011101653980151365014_">
		<use xlink:href="#SVGID_00000072270505144327307230000004592141348113688192_"  style="overflow:visible;"/>
	</clipPath>
	<g style="clip-path:url(#SVGID_00000067945643677792504630000011101653980151365014_);">
		<path class="st0" d="M70.6,131c0.3-0.1,0.1-0.3-0.4-0.5c-0.6-0.3-1.8-0.6-2.7-0.6c-0.1,0-0.3,0.1-0.4,0.1
			C66.8,130.4,69.7,131.2,70.6,131"/>
	</g>
</g>
<path class="st0" d="M37.4,24.1c0.1,0.5,1.2-0.2,2.2-1.4c0.8-0.9,1.4-2,1-2C39.6,20.7,37.2,23.3,37.4,24.1"/>
<g>
	<defs>
		<rect id="SVGID_00000161619587940423356610000013852002364922857604_" x="63.3" y="131" width="5.3" height="1.3"/>
	</defs>
	<clipPath id="SVGID_00000007430011618344009190000014800843145494104214_">
		<use xlink:href="#SVGID_00000161619587940423356610000013852002364922857604_"  style="overflow:visible;"/>
	</clipPath>
	<g style="clip-path:url(#SVGID_00000007430011618344009190000014800843145494104214_);">
		<path class="st0" d="M64.4,131.5c-0.1,0-0.1,0-0.1,0c0.3,0.2,4,0.7,4.3,0.6c-0.1,0-0.2,0-1.2-0.2
			C65.8,131.7,64.9,131.5,64.4,131.5"/>
	</g>
</g>
<path class="st0" d="M44,26.9c0.5-1,0.5-2.1-0.2-2c-1.2,0.2-2.6,2.7-2.2,3.6C42,29.3,43.3,28.4,44,26.9"/>
<path class="st0" d="M31.9,23c-0.1,0.3,0.8-0.2,2-1.3c0,0,2-1.8,1.9-2C35.2,19.6,32,22.4,31.9,23"/>
<path class="st0" d="M75.2,79.1c-2.5,0.8-2.4,3.7-0.9,4.9c1.7,1.4,4.6,0.1,4.2-2.5C78.2,79.8,76.8,78.8,75.2,79.1"/>
<path class="st0" d="M37.7,20.3c-0.8,0-3.7,2.8-3.6,3.5c0,0.4,0.9-0.1,2.2-1.5C36.3,22.2,38.1,20.5,37.7,20.3"/>
<path class="st0" d="M78.4,91.9c-2.3,0.6-2.5,3.2-0.9,4.4c1.8,1.3,4.4-0.2,4.1-2.4C81.4,93,80.4,91.5,78.4,91.9"/>
<path class="st0" d="M25.7,25.8C25.7,25.8,25.7,25.8,25.7,25.8c-0.4,0.1-3.3,3.6-3.3,3.9c0.1-0.1,0.3-0.3,1.3-1.4
	C25.2,26.4,25.6,26,25.7,25.8"/>
<path class="st0" d="M71.9,66.1c-2.5,0.8-2.3,3.8-0.7,4.9c1.9,1.3,4.2-0.3,3.9-2.6C74.8,66.8,73.4,65.7,71.9,66.1"/>
<path class="st0" d="M62,48.7c-2.1,0.6-2.3,3.4-0.8,4.5c1.6,1.2,3.7-0.3,3.4-2.4C64.5,49.9,63.7,48.4,62,48.7"/>
<path class="st0" d="M79.8,111.2c-0.2-1-1.3-1.8-2.8-1.5c-1.9,0.5-2.2,2.4-0.8,3.3C77.8,114.1,80.2,112.9,79.8,111.2"/>
<path class="st0" d="M27.8,24.5c0,0,1.9-1.9,2.1-2.2c0,0,0,0,0,0c-0.4,0-3.7,3.2-3.6,3.5C26.4,25.8,27.3,25,27.8,24.5"/>
<path class="st0" d="M68.3,58c1.8,1.2,3.7-0.5,3.4-2.4c-0.2-1-1.2-2.3-2.8-2C67.1,54.1,66.4,56.8,68.3,58"/>
<path class="st0" d="M84,105c-0.1-1-1.2-1.9-2.7-1.6c-1.6,0.4-2.5,2.4-1,3.5C82,108.1,84.2,106.7,84,105"/>
<g>
	<defs>
		<rect id="SVGID_00000089557886719230666080000005196958314464081847_" x="67.3" y="131" width="5.3" height="1.3"/>
	</defs>
	<clipPath id="SVGID_00000003807865463617279370000012920956611306588335_">
		<use xlink:href="#SVGID_00000089557886719230666080000005196958314464081847_"  style="overflow:visible;"/>
	</clipPath>
	<g style="clip-path:url(#SVGID_00000003807865463617279370000012920956611306588335_);">
		<path class="st0" d="M68.8,131.5c-0.2,0-0.2,0-0.2,0.1c0.2,0.3,3.1,0.6,3.5,0.5c0,0,0,0,0,0c0,0-0.1-0.1-0.8-0.2
			C71,131.7,69.6,131.4,68.8,131.5"/>
	</g>
</g>
<path class="st0" d="M41.6,23.8c0.1,0.6,1.1,0.1,2-1.3c0.6-0.9,0.9-1.8,0.4-1.8C43.2,20.8,41.5,23,41.6,23.8"/>
<path class="st0" d="M32.7,20.8c0.7-0.6,2-1.6,2.1-1.9c-0.2-0.2-3.6,2.6-3.7,3C31.1,21.9,31.2,22,32.7,20.8"/>
<path class="st0" d="M54.3,36.6c0.9,0.9,2.5,0,2.5-1.8c0-0.7-0.4-1.9-1.6-1.8C53.8,33.4,53.4,35.7,54.3,36.6"/>
<path class="st0" d="M77,122.8c-0.1,0-0.2,0-0.3,0.1c-1.1,0.4-0.9,1.4,0.1,1.9c1.1,0.5,2.7,0,2.4-1C79,123.3,78.2,122.6,77,122.8"/>
<path class="st0" d="M52.7,30.4c0.1-1-0.3-1.9-1.1-1.8c-1.3,0.3-1.9,2.5-1.1,3.3C51.1,32.8,52.5,32,52.7,30.4"/>
<path class="st0" d="M75.5,128c1.1,0.2,2-0.2,1.5-0.9c-0.4-0.6-1.3-0.9-2.2-0.7c-0.1,0-0.4,0.1-0.5,0.2
	C73.7,127,74.4,127.8,75.5,128"/>
<path class="st0" d="M82.2,119.4c-0.1-0.5-0.8-1.3-2.2-1c-1.6,0.4-1.5,1.8-0.6,2.3C80.7,121.4,82.4,120.6,82.2,119.4"/>
<path class="st0" d="M79.8,71.3c-2.2,0.6-2.1,3.3-0.7,4.3c1.6,1.2,4.1-0.1,3.6-2.4C82.6,72.3,81.8,70.8,79.8,71.3"/>
<path class="st0" d="M43.2,16.6c-0.7,0-3.2,2.2-3.2,2.8c0,0.3,0.7-0.1,1.9-1.1C41.9,18.2,43.5,16.7,43.2,16.6"/>
<path class="st0" d="M37.8,19c0,0.2,0.7-0.2,1.9-1.1c0.2-0.1,1.8-1.4,1.8-1.6c0,0,0,0,0,0C40.9,16.2,37.8,18.5,37.8,19"/>
<path class="st0" d="M82.3,88.5c1.5,1.1,4-0.1,3.7-2.3c-0.1-0.8-0.9-2.3-2.8-1.9C80.8,85.1,81.1,87.7,82.3,88.5"/>
<path class="st0" d="M59.4,41.1c1.2,1,2.9-0.2,2.6-1.9c-0.1-0.8-0.7-1.9-2-1.7C58.6,37.8,58.2,40.1,59.4,41.1"/>
<path class="st0" d="M88.5,98c-0.2-1.1-1.4-1.8-2.5-1.5c-1.7,0.6-2.3,2.5-1,3.5C86.6,101.3,88.8,99.7,88.5,98"/>
<path class="st0" d="M75.7,130.3c0.5-0.1,0.6-0.3,0.2-0.6c-0.3-0.2-1.2-0.6-2.1-0.5c-0.3,0-0.4,0.1-0.5,0.2
	C73,129.8,74.6,130.4,75.7,130.3"/>
<path class="st0" d="M47.8,27.5c0.5,0.8,1.6,0,2-1.3c0.2-0.9,0.1-1.8-0.6-1.7C48.1,24.7,47.3,26.6,47.8,27.5"/>
<path class="st0" d="M83.8,113.2c-1.3,0.4-1.9,1.7-1,2.5c1.2,1.1,3.2,0,3.1-1.3C85.9,113.5,84.8,112.9,83.8,113.2"/>
<path class="st0" d="M66.9,45.9L66.9,45.9c1.1-0.4,1.4-1.5,1.3-2.2c-0.2-1.1-1.3-2-2.3-1.7c-0.2,0.1-0.6,0.2-1,0.7
	C64,44.3,65.2,46.2,66.9,45.9"/>
<path class="st0" d="M75.7,62.5c1.8,1.3,3.7-0.3,3.3-2.2c-0.2-1.1-1.3-2.1-2.7-1.9C74.6,59.1,74.3,61.4,75.7,62.5"/>
<path class="st0" d="M36.6,18.2c0.2,0.1,1.3-0.7,1.7-1c0,0,1.9-1.3,2-1.5C39.9,15.6,36.6,17.9,36.6,18.2"/>
<path class="st0" d="M48.2,20.4c-0.8,0.2-1.9,1.9-1.6,2.7c0.3,0.7,1.3-0.2,1.8-1.3C48.6,21.1,48.6,20.4,48.2,20.4"/>
<path class="st0" d="M45.7,16.7c-0.5,0-2.7,2-2.6,2.7c0,0.4,1-0.3,1.7-1.1C45.2,17.8,46,16.8,45.7,16.7"/>
<g>
	<defs>
		<rect id="SVGID_00000083078863693684567270000013217198171516726675_" x="72.7" y="131" width="4" height="1.3"/>
	</defs>
	<clipPath id="SVGID_00000147188154269105259740000015101504135522254256_">
		<use xlink:href="#SVGID_00000083078863693684567270000013217198171516726675_"  style="overflow:visible;"/>
	</clipPath>
	<g style="clip-path:url(#SVGID_00000147188154269105259740000015101504135522254256_);">
		<path class="st0" d="M75.9,131.3c-0.5-0.2-1.5-0.3-2-0.2c-0.1,0-0.2,0-0.3,0.1c-0.1,0.3,2.2,0.6,2.6,0.4
			C76.4,131.5,76.1,131.4,75.9,131.3"/>
	</g>
</g>
<path class="st0" d="M30.5,20.9C30.5,20.9,30.5,20.9,30.5,20.9c-0.2,0.1-2.9,2.6-3.1,2.9c0,0,0,0,1.2-1.1C30,21.3,30.4,21,30.5,20.9
	"/>
<path class="st0" d="M32.7,19.5c1.8-1.4,1.9-1.5,2-1.6c-0.2-0.1-3.2,2.2-3.3,2.5C31.5,20.4,31.6,20.4,32.7,19.5"/>
<path class="st0" d="M43.9,15.2c0.1,0.1,0.5-0.2,1.7-0.9c0.2-0.2,1.4-1,1.5-1.1c0,0,0,0,0,0C46.9,13.1,44,14.8,43.9,15.2"/>
<path class="st0" d="M90.2,108.6c0,0-0.1-1.7-2-1.2c-2.2,0.7-1.2,2.4-1,2.6C87.9,110.7,90.1,110.3,90.2,108.6"/>
<path class="st0" d="M48.5,16.7c-0.6,0.1-1.9,1.8-1.8,2.3c0.1,0.4,0.8,0,1.4-1C48.3,17.8,49,16.7,48.5,16.7"/>
<g>
	<defs>
		<rect id="SVGID_00000163056777833973256570000003707961649633532801_" x="74" y="131" width="4" height="1.3"/>
	</defs>
	<clipPath id="SVGID_00000160903642182861008520000000157992249901426838_">
		<use xlink:href="#SVGID_00000163056777833973256570000003707961649633532801_"  style="overflow:visible;"/>
	</clipPath>
	<g style="clip-path:url(#SVGID_00000160903642182861008520000000157992249901426838_);">
		<path class="st0" d="M76.9,132c-1,0-1.4,0-1.7,0c-0.2,0-0.2,0-0.2,0c0.2,0.1,2.3,0.1,2.5,0C77.6,132.1,77.5,132.1,76.9,132"/>
	</g>
</g>
<path class="st0" d="M90,92.6c0.3,0.2,1.1,0.7,2.2-0.1c0.4-0.2,1-0.8,0.8-1.9c-0.2-1.4-1.4-1.6-2.3-1.4C89,89.8,89.2,91.9,90,92.6"
	/>
<path class="st0" d="M87.2,80.2c0.9,0.8,3.4,0.3,3.2-2.1c0,0-0.3-2.2-2.5-1.7C85.6,77.1,86.4,79.5,87.2,80.2"/>
<path class="st0" d="M83.8,67.1c0.2,0.1,1.1,0.7,2.2-0.1c0.5-0.3,1-0.9,0.7-2c-0.3-1.3-1.3-2-2.5-1.6C82.3,64.1,82.8,66.3,83.8,67.1
	"/>
<path class="st0" d="M72.5,50c1.1,0.6,2.9,0,2.5-1.8c-0.2-1-1-1.8-2.2-1.6C71,47.1,71.5,49.4,72.5,50"/>
<path class="st0" d="M39.8,15.1C39.8,15.1,39.8,15.1,39.8,15.1c-0.3,0-2.9,1.6-3.3,2.1c0.2,0,0.5-0.2,1.5-0.8
	C39.4,15.4,39.8,15.2,39.8,15.1"/>
<path class="st0" d="M80.5,128.1c-0.1,0-0.3,0.1-0.4,0.2c-0.3,0.2-0.2,0.7,0.6,0.8c0.7,0.2,1.6-0.1,1.3-0.6
	C81.7,128.2,81.2,128,80.5,128.1"/>
<path class="st0" d="M45.9,15.4c0.2-0.1,0.6-0.3,1.4-0.9c0.7-0.5,1.4-1.2,1.2-1.2c0,0,0,0,0,0C48.2,13.3,45.6,15.1,45.9,15.4"/>
<path class="st0" d="M42.7,14.8c0.3-0.1,0.7-0.3,1.7-0.9c1.6-1,1.7-1,1.7-1.1C45.8,12.8,42.9,14.4,42.7,14.8"/>
<path class="st0" d="M82.7,125c-0.1,0-0.1,0-0.2,0c-0.7,0.2-1,0.9-0.2,1.3c0.7,0.4,2-0.1,1.8-0.8C84.1,125.4,83.8,124.8,82.7,125"/>
<path class="st0" d="M54.3,26.1c0.4,0.5,1.5,0.3,1.6-1.2c0,0,0-1.3-0.9-1.2C54,23.9,53.9,25.5,54.3,26.1"/>
<path class="st0" d="M58.2,30.1c0,0,0.6,0.5,1.1,0.1c0.2-0.1,0.7-0.5,0.6-1.3c0-0.1-0.1-1.5-1.2-1.3C57.5,27.9,57.5,29.6,58.2,30.1"
	/>
<path class="st0" d="M85.8,121.1c-1.1,0.3-1.2,1.2-0.6,1.6c0.6,0.5,2.1,0,2-0.9C87.2,121.2,86.6,120.9,85.8,121.1"/>
<path class="st0" d="M80.1,54.3c0.9,0.5,2.7,0.2,2.4-1.8c-0.1-0.3-0.7-1.8-2.2-1.4C78.5,51.8,79.3,53.9,80.1,54.3"/>
<path class="st0" d="M93,100.8c-1.8,0.6-1.3,2.2-1.1,2.5c0.7,0.9,2.8,0.3,2.9-1.4C94.8,101.7,94.6,100.3,93,100.8"/>
<path class="st0" d="M34,17.9c1.4-1.1,1.4-1.1,1.5-1.1c0,0,0,0,0,0c-0.2,0.1-2.3,1.7-2.5,1.8C33.4,18.4,33.7,18.1,34,17.9"/>
<path class="st0" d="M45.4,12.4c-0.1-0.1-2.8,1.2-3.1,1.6c0.1,0,0.5-0.2,1.4-0.7C45.1,12.7,45.4,12.5,45.4,12.4"/>
<path class="st0" d="M80.4,130.8c0.4-0.1,0.5-0.2,0.3-0.4c0,0-0.6-0.3-1.3-0.2c-0.1,0-0.3,0.1-0.3,0.1
	C78.9,130.6,79.7,131,80.4,130.8"/>
<path class="st0" d="M53.2,21.1c0.1-0.5,0.1-1.1-0.4-1.1c-0.8,0.2-1.1,1.7-0.8,2.1C52.2,22.5,53,22.2,53.2,21.1"/>
<path class="st0" d="M91.1,117.1c0-0.4-0.2-1-1.3-0.7c-1.6,0.5-1,1.6-0.8,1.8C89.5,118.6,91.1,118.2,91.1,117.1"/>
<path class="st0" d="M49.6,14.3c0,0,0.1-0.1,0.1-0.1c0.8-0.8,0.7-0.9,0.6-0.9c-0.4,0.1-1.9,1.4-1.9,1.8
	C48.4,15.3,48.7,15.3,49.6,14.3"/>
<path class="st0" d="M63.2,34.3c0.7,0.5,2,0,1.8-1.4c-0.2-0.7-0.6-1.4-1.5-1.2C62.1,32.1,62.5,33.8,63.2,34.3"/>
<path class="st0" d="M69.2,38.3c0.8,0.5,2.1-0.1,1.7-1.4c-0.2-0.5-0.6-1.4-1.6-1.1C68,36.2,68.5,37.9,69.2,38.3"/>
<path class="st0" d="M91.8,71.3c0.8,0.7,2.7,0.5,2.5-1.7c0-0.6-0.8-1.1-0.8-1.1c-0.5-0.3-0.9-0.2-1.2-0.1
	C90.7,68.9,91.2,70.7,91.8,71.3"/>
<g>
	<defs>
		<rect id="SVGID_00000029731509880480413050000008316334231379663516_" x="78" y="131" width="4" height="1.3"/>
	</defs>
	<clipPath id="SVGID_00000134231390011555284590000010269408822767900349_">
		<use xlink:href="#SVGID_00000029731509880480413050000008316334231379663516_"  style="overflow:visible;"/>
	</clipPath>
	<g style="clip-path:url(#SVGID_00000134231390011555284590000010269408822767900349_);">
		<path class="st0" d="M79.4,131.5c-0.1,0-0.2,0-0.2,0.1c0,0.1,0.3,0.1,0.8,0.1c0.2,0,0.8,0,0.9-0.1c0,0,0,0-0.2-0.1
			C80.6,131.5,79.9,131.4,79.4,131.5"/>
	</g>
</g>
<path class="st0" d="M50.8,18.2c0,0.1,0.1,0.3,0.4,0.1c0.2-0.1,0.4-0.4,0.6-0.9c0.1-0.4,0.3-1,0-1C51.3,16.6,50.7,17.8,50.8,18.2"/>
<path class="st0" d="M95.1,84.3c0.4,0.3,1.2,0.3,1.5,0.1c0.3-0.2,1.1-0.8,0.9-1.8c-0.1-0.9-0.8-1.6-1.9-1.2
	C94,82,94.5,83.9,95.1,84.3"/>
<path class="st0" d="M38.5,15.2c0,0,1.4-0.8,1.5-0.9c0,0,0,0,0,0c-0.2,0-2.3,1.2-2.6,1.5c0,0,0,0,0,0C37.5,15.8,37.8,15.6,38.5,15.2
	"/>
<path class="st0" d="M98,93.7c-1.3,0.4-1.4,1.8-0.8,2.4c0.7,0.7,2.3,0,2.3-1.3C99.5,94.5,99.4,93.3,98,93.7"/>
<path class="st0" d="M95.5,111.6c0-0.3-0.1-1-1.2-0.8c-1.2,0.4-1.2,1.4-0.9,1.8C93.9,113.2,95.5,112.6,95.5,111.6"/>
<path class="st0" d="M88.1,58.4c0.9,0.6,2.4-0.1,2-1.5c-0.1-0.4-0.5-1.5-1.8-1.1C86.8,56.3,87.3,58,88.1,58.4"/>
<path class="st0" d="M76.1,42.3c0.6,0.4,2,0.1,1.7-1.3c0,0-0.4-1.4-1.6-1C74.8,40.4,75.6,42,76.1,42.3"/>
<path class="st0" d="M52,14.1c0.1-0.1,0.6-0.8,0.3-0.8c-0.4,0.1-1.1,1.1-1.1,1.4C51.2,14.7,51.3,15,52,14.1"/>
<path class="st0" d="M85.1,129.3c0,0-0.1,0-0.1,0c-0.3,0.1-0.3,0.3-0.1,0.4c0.3,0.1,1,0,0.9-0.3C85.7,129.4,85.6,129.2,85.1,129.3"
	/>
<path class="st0" d="M99.2,104.7c-0.7,0.2-1.1,1.1-0.7,1.6c0.4,0.5,1.6,0,1.7-0.9C100.2,104.7,99.7,104.6,99.2,104.7"/>
<path class="st0" d="M83.7,46.2c0.8,0.4,1.7-0.2,1.3-1.2c-0.2-0.6-0.8-0.9-1.4-0.7C82.6,44.6,83.1,45.9,83.7,46.2"/>
<path class="st0" d="M87.3,126.8c-0.5,0.1-0.6,0.5-0.4,0.6c0.3,0.3,1.1,0,1.1-0.3C88,126.9,87.9,126.7,87.3,126.8"/>
<path class="st0" d="M100,75.4c0.5,0.4,1.7-0.1,1.5-1.1c-0.1-0.5-0.4-1.1-1.2-0.9C99.2,73.8,99.5,75.1,100,75.4"/>
<path class="st0" d="M103,86.2c-1.1,0.4-0.8,1.5-0.5,1.8c0,0,0.5,0.3,1-0.1c0.1-0.1,0.5-0.4,0.5-1C104,86.5,103.8,85.9,103,86.2"/>
<path class="st0" d="M90.5,123.4c-0.8,0.2-0.5,0.8-0.5,0.8c0.2,0.3,1.1,0.1,1.1-0.5C91.2,123.6,91.2,123.3,90.5,123.4"/>
<path class="st0" d="M66.1,27.8c0.4,0.2,1.1,0,0.8-0.8c-0.1-0.2-0.3-0.8-0.9-0.6C65.3,26.6,65.8,27.6,66.1,27.8"/>
<path class="st0" d="M84.4,130.8c-0.1,0-0.3-0.1-0.6,0c-0.1,0-0.2,0-0.2,0.1C83.6,131,84.1,131,84.4,130.8
	C84.5,130.9,84.5,130.9,84.4,130.8"/>
<path class="st0" d="M61.2,24.1c0.2,0.2,0.9,0.2,0.8-0.6c0,0-0.1-0.8-0.8-0.7C60.7,23,60.9,23.9,61.2,24.1"/>
<path class="st0" d="M55.7,16.8c0-0.2,0.1-0.6-0.2-0.6c-0.4,0.1-0.5,0.9-0.3,1C55.3,17.4,55.7,17.3,55.7,16.8"/>
<path class="st0" d="M57.5,20.6c0.1,0.1,0.3,0.2,0.5,0c0.1-0.1,0.2-0.3,0.2-0.6c0-0.2-0.1-0.7-0.5-0.6
	C57.2,19.5,57.3,20.4,57.5,20.6"/>
<path class="st0" d="M96.3,62.4c0.4,0.3,1.6,0.1,1.3-1.1c0,0-0.3-1-1.2-0.7C95.3,60.9,95.8,62.1,96.3,62.4"/>
<path class="st0" d="M72.1,31.3c0.4,0.2,0.5,0,0.7-0.1c0.1-0.1,0.2-0.3,0.1-0.7c-0.2-0.4-0.6-0.6-0.9-0.5c0,0,0,0-0.1,0
	C71.4,30.3,71.6,31.1,72.1,31.3"/>
<path class="st0" d="M94.6,119.2c-0.6,0.2-0.7,0.6-0.6,0.9c0.1,0.2,0.6,0.1,0.6,0.1c0,0,0.5-0.2,0.5-0.6
	C95.2,119.4,95.1,119,94.6,119.2"/>
<path class="st0" d="M99.2,114.2c-0.6,0.2-0.5,0.7-0.4,0.8c0.2,0.2,0.8,0,0.9-0.4C99.6,114.4,99.7,114,99.2,114.2"/>
<g>
	<defs>
		<rect id="SVGID_00000151533770919974551900000003013255958258894504_" x="103.3" y="97.7" width="1.7" height="2.7"/>
	</defs>
	<clipPath id="SVGID_00000177463488258615430900000013655569522927003033_">
		<use xlink:href="#SVGID_00000151533770919974551900000003013255958258894504_"  style="overflow:visible;"/>
	</clipPath>
	<g style="clip-path:url(#SVGID_00000177463488258615430900000013655569522927003033_);">
		<path class="st0" d="M104.3,98c-0.6,0.2-0.7,0.9-0.4,1.2c0.3,0.3,1.1-0.1,1.1-0.7C105,98.2,104.9,97.8,104.3,98"/>
	</g>
</g>
<path class="st0" d="M91.7,49.9c0.4,0.2,1.2-0.1,0.9-0.8c-0.1-0.3-0.4-0.7-0.9-0.5C90.9,48.8,91.4,49.7,91.7,49.9"/>
<path class="st0" d="M79,34.8c0,0,0.3,0.1,0.5-0.1c0.1-0.1,0.2-0.3,0.1-0.5c0,0-0.2-0.6-0.7-0.4c0,0,0,0-0.1,0
	C78.3,34.1,78.6,34.7,79,34.8"/>
<g>
	<g transform="translate(113.504287, 211.517974)">
		<g>
			<path class="st12" d="M15-102.5L2-147h7.5l9.4,34.9L29.3-147h8.5l10.5,34.9l9.3-34.9h7.6l-13,44.5h-7.7l-10.9-36.7l-10.9,36.7H15
				z"/>
		</g>
	</g>
</g>
<g>
	<g transform="translate(164.204952, 211.517974)">
		<g>
			<path class="st12" d="M27.5-156.8c-1.5,0-2.7-0.5-3.7-1.5c-1-1-1.5-2.2-1.5-3.7c0-1.4,0.5-2.6,1.5-3.6c1-1,2.2-1.4,3.7-1.4
				c1.4,0,2.7,0.5,3.7,1.4c1,1,1.5,2.2,1.5,3.6c0,1.5-0.5,2.7-1.5,3.7C30.2-157.3,28.9-156.8,27.5-156.8z M23.7-102.5V-147h7.5v44.5
				H23.7z"/>
		</g>
	</g>
</g>
<g>
	<g transform="translate(180.275855, 211.517974)">
		<g>
			<path class="st12" d="M45.9-102.5c-4.1,0-7.3-1-9.6-3c-2.3-2-3.5-5.5-3.5-10.7v-24.5h-7.7v-6.4h7.7l1-10.7h6.5v10.7h13.1v6.4
				H40.3v24.5c0,2.8,0.6,4.7,1.7,5.7c1.1,1,3.1,1.5,6,1.5h4.7v6.5H45.9z"/>
		</g>
	</g>
</g>
<g>
	<g transform="translate(206.298607, 211.517974)">
		<g>
			<path class="st12" d="M41.5-156.8c-1.5,0-2.7-0.5-3.7-1.5c-1-1-1.5-2.2-1.5-3.7c0-1.4,0.5-2.6,1.5-3.6c1-1,2.2-1.4,3.7-1.4
				c1.4,0,2.7,0.5,3.7,1.4c1,1,1.5,2.2,1.5,3.6c0,1.5-0.5,2.7-1.5,3.7C44.2-157.3,43-156.8,41.5-156.8z M37.8-102.5V-147h7.5v44.5
				H37.8z"/>
		</g>
	</g>
</g>
<g>
	<g transform="translate(222.36951, 211.517974)">
		<g>
			<path class="st12" d="M44.9-102c-1.5,0-2.7-0.5-3.7-1.5c-1-1-1.5-2.2-1.5-3.6c0-1.4,0.5-2.6,1.5-3.6c1-1,2.2-1.5,3.7-1.5
				c1.4,0,2.6,0.5,3.6,1.5c1,1,1.5,2.2,1.5,3.6c0,1.4-0.5,2.6-1.5,3.6C47.6-102.5,46.3-102,44.9-102z"/>
		</g>
	</g>
</g>
<g>
	<g transform="translate(235.481749, 211.517974)">
		<g>
			<path class="st12" d="M59.5-102.5L42.6-147h7.9l13.4,37.2L77.3-147h7.7l-16.9,44.5H59.5z"/>
		</g>
	</g>
</g>
<g>
	<g transform="translate(270.514961, 211.517974)">
		<g>
			<path class="st12" d="M58.4-102.5V-147h6.8l0.5,8c1.4-2.8,3.5-5,6.2-6.6c2.7-1.6,5.8-2.4,9.2-2.4c5.2,0,9.4,1.6,12.6,4.8
				c3.1,3.2,4.7,8.1,4.7,14.8v26h-7.5v-25.2c0-9.3-3.8-13.9-11.5-13.9c-3.8,0-7,1.4-9.6,4.2c-2.5,2.8-3.8,6.7-3.8,11.9v23H58.4z"/>
		</g>
	</g>
</g>
<g>
	<g transform="translate(127.117146, 229.928056)">
		<g>
			<path class="st13" d="M7.5-97.9v-9.6c0-0.4-0.4-0.8-0.8-0.8c-0.4,0-0.8,0.4-0.8,0.8v10.3c0,0.5,0.3,0.8,0.8,0.8h6.5
				c0.4,0,0.8-0.4,0.8-0.8c0-0.3-0.4-0.7-0.8-0.7H7.5z"/>
		</g>
	</g>
</g>
<g>
	<g transform="translate(134.365101, 229.928056)">
		<g>
			<path class="st13" d="M12.7-109.8c0.2,0.2,0.3,0.2,0.5,0.2c0.5,0,0.9-0.7,0.4-1.1l-1.5-1.5c-0.1-0.1-0.3-0.2-0.5-0.2
				c-0.6,0-0.9,0.7-0.4,1.1L12.7-109.8z M13.4-107.6c-0.2-0.5-0.4-0.7-0.9-0.7c-0.5,0-0.8,0.3-1,0.7L7.3-97.5
				C7-96.9,7.3-96.4,8-96.4c0.3,0,0.6-0.2,0.7-0.5l0.8-2.1h5.8l0.8,2.1c0.1,0.3,0.4,0.5,0.8,0.5c0.6,0,0.9-0.7,0.7-1.2L13.4-107.6z
				 M12.4-106.1l2.3,5.7h-4.6L12.4-106.1z"/>
		</g>
	</g>
</g>
<g>
	<g transform="translate(142.844371, 229.928056)">
		<g>
			<path class="st13" d="M11.9-96.4c0.4,0,0.8-0.4,0.8-0.8v-8.3l3.5,4.3c0.3,0.3,0.7,0.3,1.1,0l3.5-4.3v8.3c0,0.4,0.4,0.8,0.8,0.8
				c0.4,0,0.8-0.4,0.8-0.8v-10.4c0-0.4-0.4-0.8-0.8-0.8c-0.2,0-0.4,0.1-0.6,0.2l-4.3,5.2l-4.3-5.2c-0.2-0.2-0.4-0.2-0.6-0.2
				c-0.4,0-0.8,0.3-0.8,0.8v10.4C11.1-96.7,11.4-96.4,11.9-96.4z"/>
		</g>
	</g>
</g>
<g>
	<g transform="translate(153.534399, 229.928056)">
	</g>
</g>
<g>
	<g transform="translate(157.130396, 229.928056)">
		<g>
			<path class="st13" d="M21.3-96.2c1.6,0,3-0.5,4.2-1.6c0.3-0.3,0.4-0.8,0.2-1.1c-0.3-0.4-0.8-0.3-1.1,0c-0.9,0.8-2,1.2-3.2,1.2
				c-2.5,0-4.4-2.1-4.4-4.6c0-2.7,2-4.6,4.4-4.6c1.2,0,2.3,0.5,3.2,1.3c0.4,0.3,0.9,0.3,1.2,0c0.2-0.3,0.2-0.8-0.2-1.1
				c-1.2-1.1-2.6-1.7-4.3-1.7c-3.4,0-6,2.9-6,6.1C15.3-99,18-96.2,21.3-96.2z"/>
		</g>
	</g>
</g>
<g>
	<g transform="translate(166.435197, 229.928056)">
		<g>
			<path class="st13" d="M27.9-108.4c-0.4,0-0.8,0.3-0.8,0.8v4.5h-6.5v-4.5c0-0.4-0.4-0.8-0.8-0.8c-0.4,0-0.8,0.3-0.8,0.8v10.4
				c0,0.4,0.4,0.8,0.8,0.8c0.4,0,0.8-0.4,0.8-0.8v-4.4h6.5v4.4c0,0.4,0.4,0.8,0.8,0.8s0.8-0.4,0.8-0.8v-10.4
				C28.7-108,28.3-108.4,27.9-108.4z"/>
		</g>
	</g>
</g>
<g>
	<g transform="translate(175.935899, 229.928056)">
		<g>
			<path class="st13" d="M32.6-109.7v8.6c0,0.9-0.2,1.8-0.6,2.5c-0.4,0.7-0.9,1.3-1.7,1.8c-0.8,0.4-1.7,0.6-2.9,0.6
				c-1.7,0-2.9-0.4-3.8-1.4c-0.8-0.9-1.3-2.1-1.3-3.6v-8.6H24v8.6c0,1.1,0.3,1.9,0.9,2.5c0.6,0.6,1.5,0.9,2.6,0.9
				c1.2,0,2.1-0.3,2.6-1c0.5-0.6,0.8-1.5,0.8-2.5v-8.6H32.6z M29.5-113.1c0,0.5-0.1,0.8-0.4,1.1c-0.3,0.2-0.6,0.4-1.1,0.5l-0.1,1h-1
				l-0.1-1.6c0.5-0.1,0.8-0.2,1.1-0.3c0.3-0.2,0.4-0.4,0.4-0.6c0-0.3-0.1-0.5-0.4-0.6c-0.2-0.1-0.5-0.1-0.9-0.1c-0.2,0-0.3,0-0.5,0
				c-0.2,0-0.3,0-0.4,0v-1c0.2-0.1,0.6-0.1,1-0.1c0.8,0,1.3,0.1,1.7,0.4C29.3-114.1,29.5-113.6,29.5-113.1z"/>
		</g>
	</g>
</g>
<g>
	<g transform="translate(186.164193, 229.928056)">
	</g>
</g>
<g>
	<g transform="translate(189.760189, 229.928056)">
		<g>
			<path class="st13" d="M32.2-96.2c1.6,0,3-0.5,4.2-1.6c0.3-0.3,0.4-0.8,0.2-1.1c-0.3-0.4-0.8-0.3-1.1,0c-0.9,0.8-2,1.2-3.2,1.2
				c-2.5,0-4.4-2.1-4.4-4.6c0-2.7,2-4.6,4.4-4.6c1.2,0,2.3,0.5,3.2,1.3c0.4,0.3,0.9,0.3,1.2,0c0.2-0.3,0.2-0.8-0.2-1.1
				c-1.2-1.1-2.6-1.7-4.3-1.7c-3.4,0-6,2.9-6,6.1C26.1-99,28.9-96.2,32.2-96.2z"/>
		</g>
	</g>
</g>
<g>
	<g transform="translate(199.064991, 229.928056)">
		<g>
			<path class="st13" d="M37-109.7c0.6,0.6,1.4-0.3,0.8-0.9l-1.9-1.7c-0.1-0.1-0.3-0.2-0.5-0.2s-0.3,0.1-0.5,0.2l-1.8,1.7
				c-0.7,0.6,0.1,1.5,0.8,0.9l1.5-1.5L37-109.7z M35.4-96.2c3.4,0,6.2-2.7,6.2-6.1c0-3.4-2.8-6.1-6.2-6.1c-3.4,0-6.1,2.7-6.1,6.1
				C29.3-98.9,32-96.2,35.4-96.2z M35.4-97.7c-2.6,0-4.5-2-4.5-4.6s2-4.6,4.5-4.6c2.6,0,4.6,2,4.6,4.6S38-97.7,35.4-97.7z"/>
		</g>
	</g>
</g>
<g>
	<g transform="translate(209.643084, 229.928056)">
		<g>
			<path class="st13" d="M42.6-108.3c-0.5,0-0.8,0.4-0.8,0.8v8.2l-7-8.7c-0.3-0.3-0.7-0.4-1-0.2c-0.3,0.1-0.5,0.4-0.5,0.8v10.3
				c0,0.4,0.4,0.8,0.8,0.8s0.8-0.4,0.8-0.8v-8.3l7,8.8c0.2,0.3,0.6,0.4,0.9,0.3c0.3-0.1,0.5-0.4,0.5-0.7v-10.4
				C43.4-107.9,43-108.3,42.6-108.3z"/>
		</g>
	</g>
</g>
<g>
	<g transform="translate(219.353659, 229.928056)">
		<g>
			<path class="st13" d="M42-96.2c1.6,0,2.9-0.5,4.3-1.6c0.3-0.2,0.4-0.5,0.4-0.8v-2.9c0-0.4-0.4-0.8-0.8-0.8h-2.9
				c-0.4,0-0.8,0.3-0.8,0.8c0,0.4,0.3,0.7,0.8,0.7h2.2v2c-0.8,0.8-1.9,1.1-3.1,1.1c-2.5,0-4.4-2.1-4.4-4.6c0-2.7,2-4.6,4.4-4.6
				c1.2,0,2.3,0.5,3.2,1.3c0.4,0.3,0.9,0.3,1.2,0c0.3-0.4,0.2-0.8-0.2-1.1c-1.2-1.2-2.6-1.7-4.2-1.7c-3.4,0-6,2.8-6,6.1
				C36-99,38.8-96.2,42-96.2z"/>
		</g>
	</g>
</g>
<g>
	<g transform="translate(228.65846, 229.928056)">
	</g>
</g>
<g>
	<g transform="translate(232.254457, 229.928056)">
		<g>
			<path class="st13" d="M50.1-108.3c-0.5,0-0.8,0.4-0.8,0.8v8.2l-7-8.7c-0.3-0.3-0.7-0.4-1-0.2c-0.3,0.1-0.5,0.4-0.5,0.8v10.3
				c0,0.4,0.4,0.8,0.8,0.8s0.8-0.4,0.8-0.8v-8.3l7,8.8c0.2,0.3,0.6,0.4,0.9,0.3c0.3-0.1,0.5-0.4,0.5-0.7v-10.4
				C50.9-107.9,50.6-108.3,50.1-108.3z"/>
		</g>
	</g>
</g>
<g>
	<g transform="translate(241.965031, 229.928056)">
		<g>
			<path class="st13" d="M49.5-96.2c1.6,0,2.9-0.5,4.3-1.6c0.3-0.2,0.4-0.5,0.4-0.8v-2.9c0-0.4-0.4-0.8-0.8-0.8h-2.9
				c-0.4,0-0.8,0.3-0.8,0.8c0,0.4,0.3,0.7,0.8,0.7h2.2v2c-0.8,0.8-1.9,1.1-3.1,1.1c-2.5,0-4.4-2.1-4.4-4.6c0-2.7,2-4.6,4.4-4.6
				c1.2,0,2.3,0.5,3.2,1.3c0.4,0.3,0.9,0.3,1.2,0c0.3-0.4,0.2-0.8-0.2-1.1c-1.2-1.2-2.6-1.7-4.2-1.7c-3.4,0-6,2.8-6,6.1
				C43.6-99,46.3-96.2,49.5-96.2z"/>
		</g>
	</g>
</g>
<g>
	<g transform="translate(251.269833, 229.928056)">
		<g>
			<path class="st13" d="M56.2-108.4c-0.4,0-0.8,0.3-0.8,0.8v4.5h-6.5v-4.5c0-0.4-0.4-0.8-0.8-0.8s-0.8,0.3-0.8,0.8v10.4
				c0,0.4,0.4,0.8,0.8,0.8s0.8-0.4,0.8-0.8v-4.4h6.5v4.4c0,0.4,0.4,0.8,0.8,0.8c0.4,0,0.8-0.4,0.8-0.8v-10.4
				C57-108,56.6-108.4,56.2-108.4z"/>
		</g>
	</g>
</g>
<g>
	<g transform="translate(260.770534, 229.928056)">
		<g>
			<path class="st13" d="M58-96.4c0.4,0,0.8-0.4,0.8-0.8c0-0.3-0.4-0.7-0.8-0.7h-6v-3.8h4.6c0.4,0,0.8-0.4,0.8-0.8
				c0-0.4-0.3-0.7-0.8-0.7H52v-3.7h6c0.4,0,0.8-0.3,0.8-0.7c0-0.4-0.4-0.8-0.8-0.8h-6.8c-0.5,0-0.8,0.4-0.8,0.8v10.3
				c0,0.4,0.4,0.8,0.8,0.8H58z M54.5-93.7c0.4,0,0.7-0.4,0.7-0.8c0-0.4-0.3-0.7-0.7-0.7c-0.4,0-0.8,0.3-0.8,0.7
				C53.7-94.1,54.1-93.7,54.5-93.7z"/>
		</g>
	</g>
</g>
<g>
	<g transform="translate(267.278205, 229.928056)">
		<g>
			<path class="st13" d="M49.4-109.7c0.6,0.6,1.4-0.3,0.8-0.9l-1.9-1.7c-0.1-0.1-0.3-0.2-0.5-0.2s-0.3,0.1-0.5,0.2l-1.8,1.7
				c-0.7,0.6,0.1,1.5,0.8,0.9l1.5-1.5L49.4-109.7z"/>
		</g>
	</g>
</g>
</svg>
